<svg width="23" height="21" viewBox="0 0 23 21" fill="none" xmlns="http://www.w3.org/2000/svg">
<path fill-rule="evenodd" clip-rule="evenodd" d="M3 8.32726C3 5.45035 5.33219 3.11816 8.20909 3.11816C11.086 3.11816 13.4182 5.45035 13.4182 8.32726C13.4182 11.2042 11.086 13.5363 8.20909 13.5363C5.33219 13.5363 3 11.2042 3 8.32726ZM8.20909 0.118164C3.67534 0.118164 0 3.7935 0 8.32726C0 12.861 3.67534 16.5363 8.20909 16.5363C10.2863 16.5363 12.1833 15.7649 13.6292 14.4928L20.1364 21L22.2577 18.8787L15.494 12.115C16.0844 10.9818 16.4182 9.69348 16.4182 8.32726C16.4182 3.7935 12.7428 0.118164 8.20909 0.118164Z" fill="#181818"/>
</svg>
