<svg width="20" height="20" viewBox="0 0 20 20" fill="none" xmlns="http://www.w3.org/2000/svg">
<mask id="mask0_56_1777" style="mask-type:luminance" maskUnits="userSpaceOnUse" x="0" y="0" width="19" height="20">
<path d="M18.5416 8.33337H9.99992V11.875H14.9166C14.4583 14.125 12.5416 15.4167 9.99992 15.4167C6.99992 15.4167 4.58325 13 4.58325 10C4.58325 7.00004 6.99992 4.58337 9.99992 4.58337C11.2916 4.58337 12.4583 5.04171 13.3749 5.79171L16.0416 3.12504C14.4166 1.70837 12.3333 0.833374 9.99992 0.833374C4.91659 0.833374 0.833252 4.91671 0.833252 10C0.833252 15.0834 4.91659 19.1667 9.99992 19.1667C14.5833 19.1667 18.7499 15.8334 18.7499 10C18.7499 9.45837 18.6666 8.87504 18.5416 8.33337Z" fill="white"/>
</mask>
<g mask="url(#mask0_56_1777)">
<path d="M0 15.4167V4.58337L7.08333 10L0 15.4167Z" fill="#FBBC05"/>
</g>
<mask id="mask1_56_1777" style="mask-type:luminance" maskUnits="userSpaceOnUse" x="0" y="0" width="19" height="20">
<path d="M18.5416 8.33337H9.99992V11.875H14.9166C14.4583 14.125 12.5416 15.4167 9.99992 15.4167C6.99992 15.4167 4.58325 13 4.58325 10C4.58325 7.00004 6.99992 4.58337 9.99992 4.58337C11.2916 4.58337 12.4583 5.04171 13.3749 5.79171L16.0416 3.12504C14.4166 1.70837 12.3333 0.833374 9.99992 0.833374C4.91659 0.833374 0.833252 4.91671 0.833252 10C0.833252 15.0834 4.91659 19.1667 9.99992 19.1667C14.5833 19.1667 18.7499 15.8334 18.7499 10C18.7499 9.45837 18.6666 8.87504 18.5416 8.33337Z" fill="white"/>
</mask>
<g mask="url(#mask1_56_1777)">
<path d="M0 4.58333L7.08333 10L10 7.45833L20 5.83333V0H0V4.58333Z" fill="#EA4335"/>
</g>
<mask id="mask2_56_1777" style="mask-type:luminance" maskUnits="userSpaceOnUse" x="0" y="0" width="19" height="20">
<path d="M18.5416 8.33337H9.99992V11.875H14.9166C14.4583 14.125 12.5416 15.4167 9.99992 15.4167C6.99992 15.4167 4.58325 13 4.58325 10C4.58325 7.00004 6.99992 4.58337 9.99992 4.58337C11.2916 4.58337 12.4583 5.04171 13.3749 5.79171L16.0416 3.12504C14.4166 1.70837 12.3333 0.833374 9.99992 0.833374C4.91659 0.833374 0.833252 4.91671 0.833252 10C0.833252 15.0834 4.91659 19.1667 9.99992 19.1667C14.5833 19.1667 18.7499 15.8334 18.7499 10C18.7499 9.45837 18.6666 8.87504 18.5416 8.33337Z" fill="white"/>
</mask>
<g mask="url(#mask2_56_1777)">
<path d="M0 15.4167L12.5 5.83333L15.7917 6.25L20 0V20H0V15.4167Z" fill="#34A853"/>
</g>
<mask id="mask3_56_1777" style="mask-type:luminance" maskUnits="userSpaceOnUse" x="0" y="0" width="19" height="20">
<path d="M18.5416 8.33337H9.99992V11.875H14.9166C14.4583 14.125 12.5416 15.4167 9.99992 15.4167C6.99992 15.4167 4.58325 13 4.58325 10C4.58325 7.00004 6.99992 4.58337 9.99992 4.58337C11.2916 4.58337 12.4583 5.04171 13.3749 5.79171L16.0416 3.12504C14.4166 1.70837 12.3333 0.833374 9.99992 0.833374C4.91659 0.833374 0.833252 4.91671 0.833252 10C0.833252 15.0834 4.91659 19.1667 9.99992 19.1667C14.5833 19.1667 18.7499 15.8334 18.7499 10C18.7499 9.45837 18.6666 8.87504 18.5416 8.33337Z" fill="white"/>
</mask>
<g mask="url(#mask3_56_1777)">
<path d="M19.9998 20L7.08317 10L5.4165 8.75004L19.9998 4.58337V20Z" fill="#4285F4"/>
</g>
</svg>
