<svg width="28" height="26" viewBox="0 0 28 26" fill="none" xmlns="http://www.w3.org/2000/svg">
<rect x="0.199999" y="22" width="27.6" height="3.6" rx="1" fill="#FAC96E"/>
<path d="M2 11.5999C2 9.39072 3.79086 7.59985 6 7.59985H22C24.2091 7.59985 26 9.39071 26 11.5999V21.9999H2V11.5999Z" fill="white"/>
<path d="M2 11.5999C2 9.39072 3.79086 7.59985 6 7.59985H22C24.2091 7.59985 26 9.39071 26 11.5999V12.9999H2V11.5999Z" fill="#FF689D"/>
<path d="M13.4 2.80007C13.4 2.4687 13.6686 2.20007 14 2.20007C14.3314 2.20007 14.6 2.4687 14.6 2.80007V7.60007H13.4V2.80007Z" fill="white"/>
<rect x="13.4" y="0.400146" width="1.2" height="1.2" rx="0.6" fill="#FF572D"/>
</svg>
