<svg width="20" height="25" viewBox="0 0 20 25" fill="none" xmlns="http://www.w3.org/2000/svg">
<path fill-rule="evenodd" clip-rule="evenodd" d="M2.89474 8.7105V5.85646L2.90278 5.78553C3.01701 4.7787 3.50927 3.35385 4.61948 2.16045C5.76815 0.925705 7.52485 0 10 0C12.4752 0 14.2318 0.925705 15.3805 2.16045C16.4907 3.35385 16.983 4.7787 17.0972 5.78553L17.1053 5.85646V8.7105C18.7863 9.25163 20 10.8014 20 12.6289V20.8763C20 23.1537 18.1149 25 15.7895 25H4.21053C1.88512 25 0 23.1537 0 20.8763V12.6289C0 10.8014 1.21372 9.25163 2.89474 8.7105ZM5.52632 8.50515V6.00685C5.60274 5.46251 5.90295 4.60762 6.56473 3.89625C7.21431 3.19801 8.26463 2.57732 10 2.57732C11.7354 2.57732 12.7857 3.19801 13.4353 3.89625C14.097 4.60762 14.3973 5.46251 14.4737 6.00685V8.50515H5.52632ZM12.6316 15.2062C12.6316 16.3602 11.8571 17.3371 10.7895 17.6655V20.1031C10.7895 20.5301 10.436 20.8763 10 20.8763C9.56398 20.8763 9.21053 20.5301 9.21053 20.1031V17.6655C8.14287 17.3371 7.36842 16.3602 7.36842 15.2062C7.36842 13.7828 8.54662 12.6289 10 12.6289C11.4534 12.6289 12.6316 13.7828 12.6316 15.2062Z" fill="#181818"/>
</svg>
