<svg width="114" height="60" viewBox="0 0 114 60" fill="none" xmlns="http://www.w3.org/2000/svg">
<g filter="url(#filter0_d_12_56)">
<path d="M14.3258 16.4C14.3258 16.976 14.5178 17.36 14.7738 17.424C16.7578 18.064 21.1098 18.448 29.4298 18.448C34.6778 18.448 39.9898 18.128 46.3258 17.424C48.3098 17.168 50.2298 17.744 50.7418 19.536C51.3818 21.776 49.6538 23.184 47.9258 23.632C44.0218 24.656 38.3258 25.104 33.2698 25.232V26.64C39.9898 26.576 46.1978 26.32 50.1018 25.872C52.4698 25.808 54.9018 26.192 55.0298 28.944C55.1578 31.696 53.5578 32.72 51.3178 33.104C43.7018 33.872 13.3018 34 4.46975 33.104C2.03775 32.72 0.37375 31.184 0.75775 28.752C1.14175 26.384 3.44575 25.808 5.68575 25.872C9.65375 26.256 15.7978 26.448 22.5178 26.576V25.168C17.8458 24.976 12.9818 24.592 10.4218 23.568C8.56575 22.864 6.06975 21.712 5.49375 19.088C5.17375 17.424 5.23775 14.48 5.49375 12.88C5.81375 11.088 7.47775 9.744 8.69375 9.744H38.9658V8.784C38.9658 8.528 38.9658 8.144 38.2618 8.144H9.65375C7.66975 8.144 6.13375 6.736 6.13375 4.816C6.13375 2.768 7.60575 1.36 9.65375 1.36H44.0858C45.8138 1.36 48.4378 2.448 49.0138 5.584C49.2698 7.504 49.2698 11.024 48.8858 13.264C48.5018 14.992 46.7098 16.4 44.7898 16.4H14.3258ZM15.7338 49.936V50.832C15.7338 51.024 15.9258 51.216 16.3738 51.28C19.4458 51.728 25.3338 51.984 29.5578 51.984C34.8058 51.984 42.1018 51.792 46.7738 50.832C48.6298 50.448 50.4218 51.152 50.9338 53.008C51.4458 54.928 50.2298 56.592 48.4378 57.104C44.1498 58.32 35.0618 58.704 29.1098 58.704C23.2858 58.704 14.3898 58.576 10.5498 57.296C8.69375 56.656 6.19775 55.12 5.62175 52.88C4.98175 50.32 5.49375 47.696 5.68575 46.736C6.19775 44.304 8.62975 43.344 9.97375 43.344H39.6058V42.576C39.6058 42.256 39.3498 41.936 39.0298 41.936H9.52575C7.73375 41.936 6.26175 40.528 6.26175 38.608C6.26175 36.944 7.54175 35.28 9.52575 35.28H44.4058C47.4138 35.28 49.4618 37.008 49.7818 38.992C50.2938 42.064 50.1018 44.752 49.6538 46.672C49.1418 48.848 46.8378 49.936 44.9178 49.936H15.7338ZM72.3988 51.536C67.9828 51.536 64.1428 51.088 60.5588 49.488C58.6388 48.592 57.4228 45.776 58.1268 43.408C58.9588 40.784 60.8148 39.952 62.4788 39.952C62.1588 32.144 62.1588 23.504 62.4788 15.248C60.3028 15.184 59.0228 12.496 59.0228 10.32C59.0228 8.144 60.1108 5.2 62.6068 5.2H82.2548C84.1108 5.2 85.7748 7.696 85.7748 10.256C85.7748 12.432 84.5588 15.248 82.2548 15.248H71.5028C71.0548 23.568 71.0548 33.232 71.5028 41.552C72.3348 41.616 73.1028 41.552 73.9348 41.488C74.3188 33.936 74.1908 27.792 73.8708 22.096C73.7428 20.112 74.4468 17.936 77.5828 17.36C80.1428 16.912 82.7668 18.128 82.8948 21.072C83.2788 26.768 83.2788 32.848 83.0228 40.016C84.6868 40.4 86.0308 41.68 86.6068 43.408C87.3748 45.712 86.4148 48.464 83.8548 49.616C80.1428 51.28 75.5988 51.536 72.3988 51.536ZM88.3988 31.888H87.8868C85.7748 31.888 84.3028 29.008 84.3028 26.832C84.3028 24.72 85.9028 21.776 87.8868 21.776H88.3988C88.3348 15.952 88.0788 10.64 87.7588 7.056C87.4388 4.368 89.6147 1.808 92.3028 1.552C95.1188 1.296 97.7428 3.216 98.1268 5.904C99.2788 14.672 98.8308 44.304 98.1268 51.408C97.7428 53.968 95.0548 56.208 92.5588 55.824C89.6788 55.376 87.6948 53.008 87.7588 50.448C88.0788 46.224 88.3348 39.248 88.3988 31.888ZM110.479 5.584C111.631 14.352 111.183 44.624 110.479 51.728C110.095 54.288 107.535 56.4 104.847 56.144C102.095 55.888 100.047 53.328 100.111 50.768C100.943 41.04 101.135 16.592 100.111 6.736C99.7908 4.048 102.159 1.424 104.655 1.232C107.471 1.04 110.095 2.896 110.479 5.584Z" fill="white"/>
<path d="M14.3258 16.4V15.9H13.8258V16.4H14.3258ZM14.7738 17.424L14.9273 16.9481L14.9113 16.943L14.895 16.9389L14.7738 17.424ZM46.3258 17.424L46.381 17.921L46.3897 17.9199L46.3258 17.424ZM50.7418 19.536L51.2225 19.3986V19.3986L50.7418 19.536ZM47.9258 23.632L47.8003 23.148L47.7989 23.1484L47.9258 23.632ZM33.2698 25.232L33.2571 24.7322L32.7698 24.7445V25.232H33.2698ZM33.2698 26.64H32.7698V27.1448L33.2745 27.14L33.2698 26.64ZM50.1018 25.872L50.0882 25.3722L50.0664 25.3728L50.0448 25.3753L50.1018 25.872ZM55.0298 28.944L54.5303 28.9672L55.0298 28.944ZM51.3178 33.104L51.3679 33.6015L51.3852 33.5997L51.4022 33.5968L51.3178 33.104ZM4.46975 33.104L4.39177 33.5979L4.40548 33.6L4.41928 33.6014L4.46975 33.104ZM0.75775 28.752L0.264193 28.672L0.263869 28.674L0.75775 28.752ZM5.68575 25.872L5.73391 25.3743L5.71701 25.3727L5.70003 25.3722L5.68575 25.872ZM22.5178 26.576L22.5082 27.0759L23.0178 27.0856V26.576H22.5178ZM22.5178 25.168H23.0178V24.6881L22.5383 24.6684L22.5178 25.168ZM10.4218 23.568L10.6075 23.1037L10.5991 23.1005L10.4218 23.568ZM5.49375 19.088L5.00258 19.1825L5.00538 19.1952L5.49375 19.088ZM5.49375 12.88L5.00146 12.7921L5.00003 12.801L5.49375 12.88ZM38.9658 9.744V10.244H39.4658V9.744H38.9658ZM49.0138 5.584L49.5094 5.51792L49.5077 5.50575L49.5055 5.49367L49.0138 5.584ZM48.8858 13.264L49.3738 13.3725L49.3765 13.3605L49.3786 13.3485L48.8858 13.264ZM15.7338 49.936V49.436H15.2338V49.936H15.7338ZM16.3738 51.28L16.4459 50.7852L16.4445 50.785L16.3738 51.28ZM46.7738 50.832L46.8744 51.3218L46.8751 51.3216L46.7738 50.832ZM50.9338 53.008L51.4169 52.8792L51.4157 52.875L50.9338 53.008ZM48.4378 57.104L48.5742 57.585L48.5751 57.5848L48.4378 57.104ZM10.5498 57.296L10.3867 57.7687L10.3916 57.7703L10.5498 57.296ZM5.62175 52.88L5.13667 53.0013L5.1375 53.0045L5.62175 52.88ZM5.68575 46.736L5.19645 46.633L5.19546 46.6379L5.68575 46.736ZM39.6058 43.344V43.844H40.1058V43.344H39.6058ZM49.7818 38.992L49.2881 39.0716L49.2886 39.0742L49.7818 38.992ZM49.6538 46.672L50.1405 46.7865L50.1407 46.7856L49.6538 46.672ZM13.8258 16.4C13.8258 16.7383 13.8814 17.0531 13.9986 17.3109C14.1112 17.5588 14.3176 17.8253 14.6525 17.9091L14.895 16.9389C14.9739 16.9587 14.9563 17.0012 14.9089 16.8971C14.8661 16.8029 14.8258 16.6377 14.8258 16.4H13.8258ZM14.6202 17.8999C15.6713 18.2389 17.3044 18.498 19.6888 18.6746C22.0821 18.8519 25.2637 18.948 29.4298 18.948V17.948C25.2758 17.948 22.1214 17.8521 19.7627 17.6774C17.3951 17.502 15.8602 17.2491 14.9273 16.9481L14.6202 17.8999ZM29.4298 18.948C34.6995 18.948 40.0302 18.6266 46.381 17.9209L46.2705 16.9271C39.9493 17.6294 34.656 17.948 29.4298 17.948V18.948ZM46.3897 17.9199C47.3218 17.7996 48.2028 17.8806 48.8905 18.1723C49.5637 18.4579 50.0522 18.9426 50.261 19.6734L51.2225 19.3986C50.9193 18.3374 50.1918 17.6381 49.281 17.2517C48.3847 16.8714 47.3138 16.7924 46.2618 16.9281L46.3897 17.9199ZM50.261 19.6734C50.534 20.6288 50.3036 21.3715 49.8362 21.9377C49.3519 22.5242 48.591 22.943 47.8003 23.148L48.0512 24.116C48.9885 23.873 49.9556 23.3638 50.6073 22.5743C51.2759 21.7645 51.5895 20.6832 51.2225 19.3986L50.261 19.6734ZM47.7989 23.1484C43.954 24.1569 38.3065 24.6043 33.2571 24.7322L33.2824 25.7318C38.345 25.6037 44.0895 25.1551 48.0526 24.1156L47.7989 23.1484ZM32.7698 25.232V26.64H33.7698V25.232H32.7698ZM33.2745 27.14C39.9984 27.0759 46.2278 26.8198 50.1588 26.3687L50.0448 25.3753C46.1678 25.8202 39.9811 26.0761 33.265 26.14L33.2745 27.14ZM50.1153 26.3718C51.2873 26.3401 52.386 26.4255 53.1932 26.8046C53.5867 26.9893 53.8998 27.2389 54.1235 27.5725C54.3472 27.906 54.5018 28.3539 54.5303 28.9672L55.5292 28.9208C55.4937 28.1581 55.2963 27.526 54.954 27.0155C54.6117 26.5051 54.1448 26.1467 53.6183 25.8994C52.5855 25.4145 51.2842 25.3399 50.0882 25.3722L50.1153 26.3718ZM54.5303 28.9672C54.5893 30.2362 54.2513 31.0284 53.7125 31.5542C53.1546 32.0987 52.3125 32.4262 51.2333 32.6112L51.4022 33.5968C52.563 33.3978 53.6409 33.0213 54.411 32.2698C55.2002 31.4996 55.5982 30.4038 55.5292 28.9208L54.5303 28.9672ZM51.2676 32.6065C47.4884 32.9876 38.0093 33.212 28.3489 33.228C18.6888 33.244 8.90644 33.0515 4.52022 32.6066L4.41928 33.6014C8.86507 34.0525 18.6987 34.244 28.3506 34.228C38.0022 34.212 47.5311 33.9884 51.3679 33.6015L51.2676 32.6065ZM4.54773 32.6101C3.40924 32.4304 2.50185 31.9885 1.92699 31.3589C1.36457 30.7429 1.08164 29.9066 1.25163 28.83L0.263869 28.674C0.0498583 30.0294 0.406925 31.1771 1.18851 32.0331C1.95765 32.8755 3.09826 33.3936 4.39177 33.5979L4.54773 32.6101ZM1.2513 28.832C1.41403 27.8285 1.96725 27.2211 2.74134 26.8511C3.54253 26.4683 4.58713 26.3408 5.67147 26.3718L5.70003 25.3722C4.54437 25.3392 3.31697 25.4677 2.31016 25.9489C1.27625 26.4429 0.485465 27.3075 0.264197 28.672L1.2513 28.832ZM5.63759 26.3697C9.62788 26.7558 15.7909 26.948 22.5082 27.0759L22.5273 26.0761C15.8046 25.948 9.67962 25.7562 5.73391 25.3743L5.63759 26.3697ZM23.0178 26.576V25.168H22.0178V26.576H23.0178ZM22.5383 24.6684C20.207 24.5726 17.8374 24.4292 15.7358 24.1834C13.6241 23.9363 11.823 23.59 10.6074 23.1038L10.2361 24.0322C11.5805 24.57 13.4914 24.9277 15.6197 25.1766C17.7581 25.4268 20.1565 25.5714 22.4972 25.6676L22.5383 24.6684ZM10.5991 23.1005C8.72478 22.3896 6.49467 21.3158 5.98212 18.9808L5.00538 19.1952C5.64483 22.1082 8.40672 23.3384 10.2444 24.0355L10.5991 23.1005ZM5.98475 18.9936C5.67846 17.4009 5.73809 14.5176 5.98747 12.959L5.00003 12.801C4.73741 14.4424 4.66904 17.4471 5.00275 19.1824L5.98475 18.9936ZM5.98596 12.9679C6.12372 12.1964 6.55516 11.5064 7.09649 11.0078C7.64747 10.5003 8.25217 10.244 8.69375 10.244V9.244C7.91933 9.244 7.08403 9.65971 6.41901 10.2722C5.74434 10.8936 5.18378 11.7716 5.00154 12.7921L5.98596 12.9679ZM8.69375 10.244H38.9658V9.244H8.69375V10.244ZM39.4658 9.744V8.784H38.4658V9.744H39.4658ZM39.4658 8.784C39.4658 8.68394 39.4798 8.36112 39.2898 8.08473C39.0699 7.76485 38.6958 7.644 38.2618 7.644V8.644C38.3956 8.644 38.4595 8.66271 38.4814 8.67159C38.4963 8.6776 38.4814 8.674 38.4657 8.65126C38.4538 8.63389 38.4567 8.62698 38.4605 8.65151C38.4649 8.68019 38.4658 8.71498 38.4658 8.784H39.4658ZM38.2618 7.644H9.65375V8.644H38.2618V7.644ZM9.65375 7.644C7.9146 7.644 6.63375 6.42956 6.63375 4.816H5.63375C5.63375 7.04243 7.4249 8.644 9.65375 8.644V7.644ZM6.63375 4.816C6.63375 3.91612 6.9547 3.18476 7.47468 2.67811C7.99589 2.17027 8.74633 1.86 9.65375 1.86V0.859997C8.51317 0.859997 7.50361 1.25373 6.77682 1.96188C6.0488 2.67124 5.63375 3.66788 5.63375 4.816H6.63375ZM9.65375 1.86H44.0858V0.859997H9.65375V1.86ZM44.0858 1.86C45.6466 1.86 48.0017 2.84179 48.522 5.67432L49.5055 5.49367C48.8738 2.0542 45.9809 0.859997 44.0858 0.859997V1.86ZM48.5181 5.65008C48.7681 7.52495 48.7676 10.9939 48.3929 13.1795L49.3786 13.3485C49.7719 11.0541 49.7714 7.48304 49.5094 5.51792L48.5181 5.65008ZM48.3977 13.1555C48.0679 14.6393 46.4916 15.9 44.7898 15.9V16.9C46.9279 16.9 48.9356 15.3447 49.3738 13.3725L48.3977 13.1555ZM44.7898 15.9H14.3258V16.9H44.7898V15.9ZM15.2338 49.936V50.832H16.2338V49.936H15.2338ZM15.2338 50.832C15.2338 51.1119 15.3785 51.3447 15.5809 51.5003C15.7752 51.6498 16.0264 51.7355 16.303 51.775L16.4445 50.785C16.2731 50.7605 16.2043 50.7182 16.1906 50.7077C16.1857 50.7039 16.1971 50.7114 16.2101 50.7352C16.2237 50.7604 16.2338 50.7942 16.2338 50.832H15.2338ZM16.3016 51.7748C19.4099 52.2281 25.3266 52.484 29.5578 52.484V51.484C25.3409 51.484 19.4816 51.2279 16.4459 50.7852L16.3016 51.7748ZM29.5578 52.484C34.8012 52.484 42.1457 52.2934 46.8744 51.3218L46.6731 50.3422C42.0578 51.2906 34.8103 51.484 29.5578 51.484V52.484ZM46.8751 51.3216C47.7167 51.1475 48.5131 51.2268 49.14 51.5301C49.7562 51.8283 50.2346 52.3538 50.4518 53.141L51.4157 52.875C51.1209 51.8062 50.4473 51.0517 49.5755 50.6299C48.7144 50.2132 47.6868 50.1325 46.6725 50.3424L46.8751 51.3216ZM50.4506 53.1368C50.8792 54.7438 49.8824 56.1712 48.3004 56.6232L48.5751 57.5848C50.5771 57.0128 52.0123 55.1122 51.4169 52.8792L50.4506 53.1368ZM48.3013 56.623C46.2113 57.2157 42.9125 57.6134 39.3629 57.8612C35.8248 58.1082 32.0766 58.204 29.1098 58.204V59.204C32.0949 59.204 35.8667 59.1077 39.4326 58.8588C42.987 58.6106 46.3762 58.2083 48.5742 57.585L48.3013 56.623ZM29.1098 58.204C26.1999 58.204 22.5312 58.172 19.1137 57.9808C15.6781 57.7886 12.5566 57.4379 10.7079 56.8217L10.3916 57.7703C12.3829 58.4341 15.6294 58.7874 19.0578 58.9792C22.5043 59.172 26.1956 59.204 29.1098 59.204V58.204ZM10.7127 56.8233C9.82996 56.5189 8.79477 56.0004 7.91851 55.2979C7.03938 54.5931 6.35759 53.7339 6.106 52.7555L5.1375 53.0045C5.46192 54.2661 6.31612 55.2949 7.29299 56.0781C8.27273 56.8636 9.41354 57.4331 10.3868 57.7687L10.7127 56.8233ZM6.10682 52.7587C5.49663 50.318 5.98422 47.7932 6.17604 46.8341L5.19546 46.6379C5.00328 47.5988 4.46687 50.322 5.13668 53.0013L6.10682 52.7587ZM6.17503 46.839C6.3983 45.7784 7.03773 45.0346 7.78954 44.5477C8.55164 44.0541 9.40177 43.844 9.97375 43.844V42.844C9.20173 42.844 8.16386 43.1139 7.24596 43.7083C6.31777 44.3094 5.4852 45.2616 5.19648 46.633L6.17503 46.839ZM9.97375 43.844H39.6058V42.844H9.97375V43.844ZM40.1058 43.344V42.576H39.1058V43.344H40.1058ZM40.1058 42.576C40.1058 42.2874 39.9927 42.0129 39.8156 41.8085C39.6372 41.6027 39.3635 41.436 39.0298 41.436V42.436C39.016 42.436 39.0303 42.4293 39.0599 42.4635C39.0908 42.4991 39.1058 42.5446 39.1058 42.576H40.1058ZM39.0298 41.436H9.52575V42.436H39.0298V41.436ZM9.52575 41.436C8.00989 41.436 6.76175 40.2519 6.76175 38.608H5.76175C5.76175 40.8041 7.45761 42.436 9.52575 42.436V41.436ZM6.76175 38.608C6.76175 37.1749 7.8611 35.78 9.52575 35.78V34.78C7.2224 34.78 5.76175 36.7131 5.76175 38.608H6.76175ZM9.52575 35.78H44.4058V34.78H9.52575V35.78ZM44.4058 35.78C47.235 35.78 49.017 37.3903 49.2881 39.0716L50.2754 38.9124C49.9066 36.6257 47.5925 34.78 44.4058 34.78V35.78ZM49.2886 39.0742C49.7898 42.082 49.5997 44.7034 49.1668 46.5584L50.1407 46.7856C50.6038 44.8006 50.7977 42.046 50.275 38.9098L49.2886 39.0742ZM49.167 46.5575C48.7291 48.4187 46.7115 49.436 44.9178 49.436V50.436C46.964 50.436 49.5544 49.2773 50.1405 46.7865L49.167 46.5575ZM44.9178 49.436H15.7338V50.436H44.9178V49.436ZM60.5588 49.488L60.3473 49.9412L60.3549 49.9446L60.5588 49.488ZM58.1268 43.408L57.6501 43.2569L57.6475 43.2655L58.1268 43.408ZM62.4788 39.952V40.452H62.9997L62.9783 39.9315L62.4788 39.952ZM62.4788 15.248L62.9784 15.2674L62.9979 14.7631L62.4935 14.7482L62.4788 15.248ZM71.5027 15.248V14.748H71.0289L71.0035 15.2211L71.5027 15.248ZM71.5027 41.552L71.0035 41.5789L71.0271 42.0169L71.4644 42.0505L71.5027 41.552ZM73.9348 41.488L73.9731 41.9865L74.4118 41.9528L74.4341 41.5134L73.9348 41.488ZM73.8708 22.096L74.37 22.068L74.3697 22.0638L73.8708 22.096ZM77.5827 17.36L77.4966 16.8675L77.4924 16.8682L77.5827 17.36ZM82.8948 21.072L82.3951 21.0937L82.3959 21.1056L82.8948 21.072ZM83.0228 40.016L82.5231 39.9982L82.5083 40.4104L82.9103 40.5032L83.0228 40.016ZM86.6068 43.408L86.1324 43.5661L86.6068 43.408ZM83.8548 49.616L84.0593 50.0723L84.0599 50.072L83.8548 49.616ZM88.3988 31.888L88.8987 31.8923L88.9031 31.388H88.3988V31.888ZM88.3988 21.776V22.276H88.9043L88.8987 21.7705L88.3988 21.776ZM87.7588 7.056L88.2568 7.01153L88.2561 7.0042L88.2552 6.99689L87.7588 7.056ZM92.3027 1.552L92.2575 1.05405L92.2553 1.05425L92.3027 1.552ZM98.1268 5.904L98.6225 5.83886L98.6217 5.83329L98.1268 5.904ZM98.1268 51.408L98.6212 51.4822L98.6231 51.4698L98.6243 51.4573L98.1268 51.408ZM92.5587 55.824L92.4819 56.3181L92.4827 56.3182L92.5587 55.824ZM87.7588 50.448L87.2602 50.4102L87.2592 50.4229L87.2589 50.4355L87.7588 50.448ZM110.479 5.584L110.975 5.51886L110.974 5.51329L110.479 5.584ZM110.479 51.728L110.973 51.8022L110.975 51.7898L110.976 51.7773L110.479 51.728ZM104.847 56.144L104.894 55.6463L104.893 55.6461L104.847 56.144ZM100.111 50.768L99.6126 50.7254L99.6113 50.7404L99.6109 50.7555L100.111 50.768ZM100.111 6.736L100.608 6.68432L100.607 6.67689L100.111 6.736ZM104.655 1.232L104.621 0.733138L104.616 0.733471L104.655 1.232ZM72.3988 51.036C68.0132 51.036 64.254 50.5901 60.7626 49.0314L60.3549 49.9446C64.0315 51.5859 67.9523 52.036 72.3988 52.036V51.036ZM60.7702 49.0349C59.9508 48.6525 59.2422 47.8366 58.8214 46.8103C58.4022 45.7881 58.2911 44.6098 58.606 43.5505L57.6475 43.2655C57.2584 44.5742 57.4033 45.9879 57.8961 47.1897C58.3873 48.3874 59.2467 49.4275 60.3473 49.9411L60.7702 49.0349ZM58.6034 43.5591C58.9902 42.3391 59.6013 41.5727 60.2749 41.1074C60.9527 40.6393 61.7288 40.452 62.4788 40.452V39.452C61.5647 39.452 60.5808 39.6807 59.7066 40.2846C58.8282 40.8913 58.0953 41.8529 57.6501 43.2569L58.6034 43.5591ZM62.9783 39.9315C62.6589 32.1375 62.6589 23.5108 62.9784 15.2674L61.9791 15.2286C61.6586 23.4972 61.6586 32.1505 61.9792 39.9725L62.9783 39.9315ZM62.4935 14.7482C61.6313 14.7229 60.8989 14.1796 60.3593 13.312C59.82 12.4446 59.5228 11.3213 59.5228 10.32H58.5228C58.5228 11.4947 58.8655 12.8034 59.5102 13.84C60.1546 14.8764 61.1502 15.7091 62.4641 15.7478L62.4935 14.7482ZM59.5228 10.32C59.5228 9.30206 59.7797 8.11232 60.3114 7.19465C60.8377 6.28613 61.5925 5.7 62.6068 5.7V4.7C61.125 4.7 60.0877 5.58587 59.4461 6.69334C58.8098 7.79167 58.5228 9.16193 58.5228 10.32H59.5228ZM62.6068 5.7H82.2548V4.7H62.6068V5.7ZM82.2548 5.7C82.9519 5.7 83.6988 6.17732 84.2985 7.05097C84.8898 7.91234 85.2747 9.07782 85.2747 10.256H86.2747C86.2747 8.87418 85.8277 7.51166 85.123 6.48503C84.4267 5.47068 83.4136 4.7 82.2548 4.7V5.7ZM85.2747 10.256C85.2747 11.2634 84.9905 12.4197 84.4512 13.3087C83.9138 14.1947 83.1722 14.748 82.2548 14.748V15.748C83.6413 15.748 84.6597 14.8933 85.3063 13.8273C85.951 12.7643 86.2747 11.4246 86.2747 10.256H85.2747ZM82.2548 14.748H71.5027V15.748H82.2548V14.748ZM71.0035 15.2211C70.5545 23.559 70.5545 33.241 71.0035 41.5789L72.002 41.5251C71.555 33.223 71.555 23.577 72.002 15.2749L71.0035 15.2211ZM71.4644 42.0505C72.3417 42.118 73.1491 42.0499 73.9731 41.9865L73.8964 40.9895C73.0564 41.0541 72.3279 41.114 71.5411 41.0535L71.4644 42.0505ZM74.4341 41.5134C74.8192 33.9405 74.6908 27.7784 74.37 22.068L73.3715 22.124C73.6907 27.8056 73.8183 33.9315 73.4354 41.4626L74.4341 41.5134ZM74.3697 22.0638C74.3097 21.1343 74.4491 20.2126 74.9241 19.4692C75.3891 18.7414 76.2172 18.1192 77.6731 17.8518L77.4924 16.8682C75.8123 17.1768 74.7205 17.9306 74.0814 18.9308C73.4524 19.9154 73.3038 21.0737 73.3718 22.1282L74.3697 22.0638ZM77.6689 17.8525C78.8521 17.6455 80.0185 17.8295 80.887 18.3688C81.7379 18.8972 82.3384 19.7859 82.3952 21.0937L83.3943 21.0503C83.3231 19.414 82.5476 18.2228 81.4145 17.5192C80.299 16.8265 78.8734 16.6265 77.4966 16.8675L77.6689 17.8525ZM82.3959 21.1056C82.7783 26.7781 82.7787 32.8394 82.5231 39.9982L83.5224 40.0338C83.7788 32.8566 83.7792 26.7579 83.3936 21.0384L82.3959 21.1056ZM82.9103 40.5032C84.3894 40.8445 85.6064 41.988 86.1324 43.5661L87.0811 43.2499C86.4551 41.372 84.9841 39.9555 83.1352 39.5288L82.9103 40.5032ZM86.1324 43.5661C86.8251 45.6442 85.9591 48.1208 83.6496 49.16L84.0599 50.072C86.8704 48.8072 87.9244 45.7798 87.0811 43.2499L86.1324 43.5661ZM83.6502 49.1597C80.0412 50.7776 75.5888 51.036 72.3988 51.036V52.036C75.6087 52.036 80.2443 51.7824 84.0593 50.0723L83.6502 49.1597ZM88.3988 31.388H87.8867V32.388H88.3988V31.388ZM87.8867 31.388C87.0756 31.388 86.3131 30.8313 85.7244 29.9073C85.1417 28.9927 84.8027 27.8214 84.8027 26.832H83.8027C83.8027 28.0186 84.1998 29.3753 84.8811 30.4447C85.5564 31.5047 86.5859 32.388 87.8867 32.388V31.388ZM84.8027 26.832C84.8027 25.8849 85.1676 24.714 85.7704 23.7839C86.3842 22.8366 87.1487 22.276 87.8867 22.276V21.276C86.6408 21.276 85.6133 22.1874 84.9311 23.2401C84.2379 24.31 83.8027 25.6671 83.8027 26.832H84.8027ZM87.8867 22.276H88.3988V21.276H87.8867V22.276ZM88.8987 21.7705C88.8346 15.9373 88.5782 10.6118 88.2568 7.01153L87.2607 7.10047C87.5793 10.6682 87.8349 15.9667 87.8988 21.7815L88.8987 21.7705ZM88.2552 6.99689C87.9702 4.60277 89.9263 2.28059 92.3502 2.04975L92.2553 1.05425C89.3032 1.3354 86.9073 4.13322 87.2623 7.11511L88.2552 6.99689ZM92.348 2.04994C94.9273 1.81547 97.2893 3.57753 97.6318 5.97471L98.6217 5.83329C98.1962 2.85447 95.3102 0.776529 92.2575 1.05405L92.348 2.04994ZM97.631 5.96913C98.2017 10.313 98.3788 19.8775 98.3228 29.277C98.2668 38.6707 97.9786 47.8329 97.6292 51.3587L98.6243 51.4573C98.9789 47.8791 99.2668 38.6733 99.3227 29.283C99.3787 19.8985 99.2038 10.263 98.6225 5.83887L97.631 5.96913ZM97.6323 51.3338C97.4618 52.4705 96.7717 53.5642 95.8209 54.3307C94.8694 55.0979 93.7109 55.4954 92.6348 55.3298L92.4827 56.3182C93.9026 56.5366 95.3361 56.0061 96.4486 55.1093C97.5618 54.2118 98.4077 52.9055 98.6212 51.4822L97.6323 51.3338ZM92.6356 55.3299C89.9828 54.9173 88.2014 52.7486 88.2586 50.4605L87.2589 50.4355C87.1881 53.2674 89.3747 55.8347 92.4819 56.3181L92.6356 55.3299ZM88.2573 50.4858C88.5785 46.2464 88.8347 39.2583 88.8987 31.8923L87.8988 31.8837C87.8348 39.2377 87.579 46.2016 87.2602 50.4102L88.2573 50.4858ZM109.983 5.64913C110.554 9.9929 110.731 19.7171 110.675 29.2771C110.619 38.8311 110.331 48.153 109.981 51.6787L110.976 51.7773C111.331 48.199 111.619 38.8329 111.675 29.2829C111.731 19.7389 111.556 9.9431 110.974 5.51887L109.983 5.64913ZM109.984 51.6538C109.638 53.9596 107.309 55.8763 104.894 55.6463L104.799 56.6417C107.76 56.9237 110.551 54.6164 110.973 51.8022L109.984 51.6538ZM104.893 55.6461C102.42 55.4161 100.553 53.0953 100.611 50.7805L99.6109 50.7555C99.5408 53.5607 101.769 56.3599 104.8 56.6418L104.893 55.6461ZM100.609 50.8106C101.443 41.0597 101.636 16.5791 100.608 6.68433L99.6134 6.78767C100.633 16.6049 100.443 41.0203 99.6126 50.7254L100.609 50.8106ZM100.607 6.67689C100.467 5.49776 100.915 4.30425 101.708 3.37191C102.502 2.43743 103.602 1.81445 104.693 1.73053L104.616 0.733471C103.211 0.841546 101.879 1.62657 100.946 2.72409C100.011 3.82375 99.4346 5.28623 99.6143 6.7951L100.607 6.67689ZM104.689 1.73084C107.287 1.55369 109.643 3.26688 109.984 5.65471L110.974 5.51329C110.547 2.52511 107.655 0.526305 104.621 0.733157L104.689 1.73084Z" fill="black"/>
</g>
<defs>
<filter id="filter0_d_12_56" x="0.202713" y="0.718475" width="113.482" height="58.4855" filterUnits="userSpaceOnUse" color-interpolation-filters="sRGB">
<feFlood flood-opacity="0" result="BackgroundImageFix"/>
<feColorMatrix in="SourceAlpha" type="matrix" values="0 0 0 0 0 0 0 0 0 0 0 0 0 0 0 0 0 0 127 0" result="hardAlpha"/>
<feOffset dx="2"/>
<feComposite in2="hardAlpha" operator="out"/>
<feColorMatrix type="matrix" values="0 0 0 0 0 0 0 0 0 0 0 0 0 0 0 0 0 0 1 0"/>
<feBlend mode="normal" in2="BackgroundImageFix" result="effect1_dropShadow_12_56"/>
<feBlend mode="normal" in="SourceGraphic" in2="effect1_dropShadow_12_56" result="shape"/>
</filter>
</defs>
</svg>
