<svg width="188" height="20" viewBox="0 0 188 20" fill="none" xmlns="http://www.w3.org/2000/svg">
<path d="M12 4H8V20H4V4H0V2H12V4ZM16 8H18V6H26V8H28V14H20V18H26V20H18V18H16V8ZM24 12V8H20V12H24ZM40 8H34V6H42V8H44V20H34V18H32V14H34V12H40V8ZM40 18V14H36V18H40ZM52 20H48V6H60V8H62V20H58V8H56V18H54V8H52V20ZM90 12H84V18H92V20H80V2H92V4H84V10H90V12ZM98 14H100V12H98V10H96V6H100V10H104V6H108V10H106V12H104V14H106V16H108V20H104V16H100V20H96V16H98V14ZM120 4H116V0H120V4ZM120 18H124V20H112V18H116V8H112V6H120V18ZM130 2H134V6H140V8H134V18H140V20H132V18H130V8H128V6H130V2ZM144 8H146V6H154V8H156V14H148V18H154V20H146V18H144V8ZM152 12V8H148V12H152ZM160 6H164V10H166V12H164V20H160V6ZM172 6V10H166V8H168V6H172ZM178 12H176V8H178V6H188V8H180V12H186V14H188V18H186V20H176V18H184V14H178V12Z" fill="white"/>
</svg>
