<svg width="12" height="21" viewBox="0 0 12 21" fill="none" xmlns="http://www.w3.org/2000/svg">
<path fill-rule="evenodd" clip-rule="evenodd" d="M11.5412 2.58298C12.1393 2.00979 12.1595 1.06026 11.5863 0.462144C11.0131 -0.135971 10.0636 -0.156173 9.46549 0.41702L0.467561 9.04004C0.461349 9.04594 0.455176 9.05191 0.449043 9.05793C0.150818 9.35063 0.000469088 9.73824 1.09595e-06 10.1266C-0.000258897 10.3423 0.0457398 10.5583 0.138341 10.7584C0.211868 10.9174 0.31464 11.066 0.446499 11.196C0.452708 11.2021 0.458959 11.2082 0.465249 11.2142L9.46315 19.8747C10.06 20.4492 11.0096 20.431 11.5841 19.8342C12.1586 19.2373 12.1404 18.2877 11.5436 17.7132L3.66547 10.1306L11.5412 2.58298Z" fill="black"/>
</svg>
