<svg width="20" height="19" viewBox="0 0 20 19" fill="none" xmlns="http://www.w3.org/2000/svg">
<g clip-path="url(#clip0_56_1772)">
<path fill-rule="evenodd" clip-rule="evenodd" d="M10 0.800659C4.47667 0.800659 0 4.04451 0 8.04592C0 10.5348 1.73167 12.7281 4.36834 14.0327L3.25723 17.8335C3.23695 17.9085 3.24158 17.9875 3.2705 18.06C3.29943 18.1325 3.35128 18.1951 3.41919 18.2395C3.4871 18.2838 3.56784 18.3079 3.65073 18.3084C3.73363 18.309 3.81474 18.286 3.88333 18.2426L8.74666 15.2326C9.15666 15.2694 9.57389 15.2912 9.99834 15.2912C15.5211 15.2912 19.9983 12.0468 19.9983 8.04592C19.9983 4.04503 15.5211 0.800659 9.99834 0.800659" fill="#181818"/>
</g>
<defs>
<clipPath id="clip0_56_1772">
<rect width="20" height="17.5" fill="white" transform="translate(0 0.800049)"/>
</clipPath>
</defs>
</svg>
