<svg width="16" height="16" viewBox="0 0 16 16" fill="none" xmlns="http://www.w3.org/2000/svg">
<path fill-rule="evenodd" clip-rule="evenodd" d="M14 8C14 11.3137 11.3137 14 8 14C6.59795 14 5.30821 13.5191 4.28675 12.7133L12.7133 4.28675C13.5191 5.30821 14 6.59795 14 8ZM2.94228 11.2293L11.2293 2.94228C10.297 2.34579 9.18889 2 8 2C4.68629 2 2 4.68629 2 8C2 9.18889 2.34579 10.297 2.94228 11.2293ZM16 8C16 12.4183 12.4183 16 8 16C3.58172 16 0 12.4183 0 8C0 3.58172 3.58172 0 8 0C12.4183 0 16 3.58172 16 8Z" fill="#AAAAAA"/>
</svg>
